{
  "accessors": [
    {
      "bufferView": 2,
      "componentType": 5126,
      "count": 10656,
      "max": [
        28.033660888671875,
        10.44219970703125,
        82.731224060058594
      ],
      "min": [
        -28.212444305419922,
        -5.9700522422790527,
        -0.01746157743036747
      ],
      "type": "VEC3"
    },
    {
      "bufferView": 2,
      "byteOffset": 127872,
      "componentType": 5126,
      "count": 10656,
      "max": [
        0.99981313943862915,
        0.99997776746749878,
        0.99989736080169678
      ],
      "min": [
        -0.99996280670166016,
        -0.99998605251312256,
        -1.0013129711151123
      ],
      "type": "VEC3"
    },
    {
      "bufferView": 3,
      "componentType": 5126,
      "count": 10656,
      "max": [
        0.99999994039535522,
        0.99996650218963623,
        0.99906516075134277,
        1
      ],
      "min": [
        -0.99999994039535522,
        -0.99969124794006348,
        -0.99989539384841919,
        -1
      ],
      "type": "VEC4"
    },
    {
      "bufferView": 1,
      "componentType": 5126,
      "count": 10656,
      "max": [
        0.99820101261138916,
        0.99430698156356812
      ],
      "min": [
        0,
        0
      ],
      "type": "VEC2"
    },
    {
      "bufferView": 0,
      "componentType": 5125,
      "count": 57435,
      "max": [
        10655
      ],
      "min": [
        0
      ],
      "type": "SCALAR"
    },
    {
      "bufferView": 2,
      "byteOffset": 255744,
      "componentType": 5126,
      "count": 441,
      "max": [
        4.6021199226379395,
        -0.82935363054275513,
        72.53887939453125
      ],
      "min": [
        -4.6021184921264648,
        -5.3365163803100586,
        68.478797912597656
      ],
      "type": "VEC3"
    },
    {
      "bufferView": 2,
      "byteOffset": 261036,
      "componentType": 5126,
      "count": 441,
      "max": [
        0.99821114540100098,
        0.99133694171905518,
        0.99618422985076904
      ],
      "min": [
        -0.99825716018676758,
        -0.99798333644866943,
        -0.99378013610839844
      ],
      "type": "VEC3"
    },
    {
      "bufferView": 3,
      "byteOffset": 170496,
      "componentType": 5126,
      "count": 441,
      "max": [
        0.95405763387680054,
        0.99292075634002686,
        0.39017957448959351,
        1
      ],
      "min": [
        -0.95589345693588257,
        -0.99205994606018066,
        -0.99999028444290161,
        -1
      ],
      "type": "VEC4"
    },
    {
      "bufferView": 1,
      "byteOffset": 85248,
      "componentType": 5126,
      "count": 441,
      "max": [
        0.15386000275611877,
        0.70404297113418579
      ],
      "min": [
        0.01006499957293272,
        0.5015149712562561
      ],
      "type": "VEC2"
    },
    {
      "bufferView": 0,
      "byteOffset": 229740,
      "componentType": 5125,
      "count": 2562,
      "max": [
        440
      ],
      "min": [
        0
      ],
      "type": "SCALAR"
    },
    {
      "bufferView": 4,
      "componentType": 5126,
      "count": 1,
      "max": [
        1,
        0,
        0,
        0,
        0,
        1,
        0,
        0,
        0,
        0,
        1,
        0,
        0,
        0,
        0,
        1
      ],
      "min": [
        1,
        0,
        0,
        0,
        0,
        1,
        0,
        0,
        0,
        0,
        1,
        0,
        0,
        0,
        0,
        1
      ],
      "type": "MAT4"
    }
  ],
  "asset": {
    "extras": {
      "author": "skyriis (https://sketchfab.com/skyriis)",
      "license": "CC-BY-4.0 (http://creativecommons.org/licenses/by/4.0/)",
      "source": "https://sketchfab.com/models/da6e418ef5ca4414af754fc91a431e8d",
      "title": "Rick Sanchez"
    },
    "generator": "Sketchfab-3.32.3",
    "version": "2.0"
  },
  "bufferViews": [
    {
      "buffer": 0,
      "byteLength": 239988,
      "byteOffset": 0,
      "name": "floatBufferViews",
      "target": 34963
    },
    {
      "buffer": 0,
      "byteLength": 88776,
      "byteOffset": 239988,
      "byteStride": 8,
      "name": "floatBufferViews",
      "target": 34962
    },
    {
      "buffer": 0,
      "byteLength": 266328,
      "byteOffset": 328764,
      "byteStride": 12,
      "name": "floatBufferViews",
      "target": 34962
    },
    {
      "buffer": 0,
      "byteLength": 177552,
      "byteOffset": 595092,
      "byteStride": 16,
      "name": "floatBufferViews",
      "target": 34962
    },
    {
      "buffer": 0,
      "byteLength": 64,
      "byteOffset": 772644,
      "byteStride": 64,
      "name": "floatBufferViews"
    }
  ],
  "buffers": [
    {
      "byteLength": 772708,
      "uri": "scene.bin"
    }
  ],
  "images": [
    {
      "uri": "textures/rm_rick_baseColor.png"
    },
    {
      "uri": "textures/rm_eye_baseColor.png"
    }
  ],
  "materials": [
    {
      "doubleSided": true,
      "emissiveFactor": [
        0,
        0,
        0
      ],
      "name": "rm_rick",
      "pbrMetallicRoughness": {
        "baseColorFactor": [
          1,
          1,
          1,
          1
        ],
        "baseColorTexture": {
          "index": 0,
          "texCoord": 0
        },
        "metallicFactor": 0,
        "roughnessFactor": 0.82394172570000002
      }
    },
    {
      "doubleSided": true,
      "emissiveFactor": [
        0,
        0,
        0
      ],
      "name": "rm_eye",
      "pbrMetallicRoughness": {
        "baseColorFactor": [
          1,
          1,
          1,
          1
        ],
        "baseColorTexture": {
          "index": 1,
          "texCoord": 0
        },
        "metallicFactor": 0,
        "roughnessFactor": 0.82394172570000002
      }
    }
  ],
  "meshes": [
    {
      "primitives": [
        {
          "attributes": {
            "NORMAL": 1,
            "POSITION": 0,
            "TANGENT": 2,
            "TEXCOORD_0": 3
          },
          "indices": 4,
          "material": 0,
          "mode": 4
        }
      ]
    },
    {
      "primitives": [
        {
          "attributes": {
            "NORMAL": 6,
            "POSITION": 5,
            "TANGENT": 7,
            "TEXCOORD_0": 8
          },
          "indices": 9,
          "material": 1,
          "mode": 4
        }
      ]
    }
  ],
  "nodes": [
    {
      "children": [
        1
      ],
      "name": "RootNode (gltf orientation matrix)",
      "rotation": [
        -0.70710678118654746,
        -0,
        -0,
        0.70710678118654757
      ]
    },
    {
      "children": [
        2
      ],
      "name": "RootNode (model correction matrix)"
    },
    {
      "children": [
        3
      ],
      "matrix": [
        1,
        0,
        0,
        0,
        0,
        0,
        1,
        0,
        0,
        -1,
        0,
        0,
        0,
        0,
        0,
        1
      ],
      "name": "a58dd203197a4d5d85aba0a90782ff8c.fbx"
    },
    {
      "children": [
        4
      ],
      "name": "RootNode"
    },
    {
      "children": [
        5
      ],
      "matrix": [
        1,
        0,
        0,
        0,
        0,
        0.99999999999998668,
        1.6292067073209113e-07,
        0,
        0,
        -1.6292067073209113e-07,
        0.99999999999998668,
        0,
        0,
        0,
        0,
        1
      ],
      "name": "Armature"
    },
    {
      "children": [
        6,
        7
      ],
      "name": ""
    },
    {
      "name": "_rootJoint"
    },
    {
      "children": [
        8,
        9
      ],
      "matrix": [
        99.999999999999986,
        -2.4437916851647962e-06,
        2.086162623741898e-06,
        0,
        2.0861623324192794e-06,
        -1.192093075408934e-05,
        -100.00000000000459,
        0,
        2.4437913745153247e-06,
        99.999977111820996,
        -1.1920927974623369e-05,
        0,
        0,
        -3.8273161862889538e-05,
        3.1437110692422721e-06,
        1
      ],
      "name": ""
    },
    {
      "mesh": 0,
      "name": ""
    },
    {
      "mesh": 1,
      "name": ""
    }
  ],
  "samplers": [
    {
      "magFilter": 9729,
      "minFilter": 9987,
      "wrapS": 10497,
      "wrapT": 10497
    }
  ],
  "scene": 0,
  "scenes": [
    {
      "name": "OSG_Scene",
      "nodes": [
        0
      ]
    }
  ],
  "skins": [
    {
      "inverseBindMatrices": 10,
      "joints": [
        6
      ],
      "skeleton": 6
    }
  ],
  "textures": [
    {
      "sampler": 0,
      "source": 0
    },
    {
      "sampler": 0,
      "source": 1
    }
  ]
}

